<?xml version="1.0" standalone="no"?><svg xmlns="http://www.w3.org/2000/svg" viewBox="0 0 1440 320"><path fill="#99ddff" fill-opacity="1" d="M0,96L20,101.3C40,107,80,117,120,128C160,139,200,149,240,176C280,203,320,245,360,245.3C400,245,440,203,480,181.3C520,160,560,160,600,170.7C640,181,680,203,720,202.7C760,203,800,181,840,197.3C880,213,920,267,960,282.7C1000,299,1040,277,1080,224C1120,171,1160,85,1200,85.3C1240,85,1280,171,1320,218.7C1360,267,1400,277,1420,282.7L1440,288L1440,320L1420,320C1400,320,1360,320,1320,320C1280,320,1240,320,1200,320C1160,320,1120,320,1080,320C1040,320,1000,320,960,320C920,320,880,320,840,320C800,320,760,320,720,320C680,320,640,320,600,320C560,320,520,320,480,320C440,320,400,320,360,320C320,320,280,320,240,320C200,320,160,320,120,320C80,320,40,320,20,320L0,320Z"></path></svg>