<?xml version="1.0" standalone="no"?><svg xmlns="http://www.w3.org/2000/svg" viewBox="0 0 1440 320"><path fill="#99ddff" fill-opacity="1" d="M0,128L26.7,133.3C53.3,139,107,149,160,133.3C213.3,117,267,75,320,80C373.3,85,427,139,480,154.7C533.3,171,587,149,640,128C693.3,107,747,85,800,74.7C853.3,64,907,64,960,58.7C1013.3,53,1067,43,1120,58.7C1173.3,75,1227,117,1280,122.7C1333.3,128,1387,96,1413,80L1440,64L1440,0L1413.3,0C1386.7,0,1333,0,1280,0C1226.7,0,1173,0,1120,0C1066.7,0,1013,0,960,0C906.7,0,853,0,800,0C746.7,0,693,0,640,0C586.7,0,533,0,480,0C426.7,0,373,0,320,0C266.7,0,213,0,160,0C106.7,0,53,0,27,0L0,0Z"></path></svg>